<svg width="127" height="24" viewBox="0 0 127 24" fill="none" xmlns="http://www.w3.org/2000/svg">
<path fill-rule="evenodd" clip-rule="evenodd" d="M11.2401 0.000590573L7.37063 6.06624L0.00102597 6.06586L3.74693 11.9996L0.000351448 17.933L7.36998 17.9334L11.2387 23.9995L15.1082 17.9338L22.4778 17.9342L18.7319 12.0004L22.4785 6.06704L15.1088 6.06665L11.2401 0.000590573ZM15.1088 6.06665L18.7319 12.0004L15.1082 17.9338L7.36998 17.9334L3.74693 11.9996L7.37063 6.06624L15.1088 6.06665Z" fill="white"/>
<path d="M50.2704 18H36.3517C34.9665 18 34 17.1034 34 15.8182V8.18182C34 6.89664 34.9665 6 36.3517 6H50.2704C51.6557 6 52.6222 6.89664 52.6222 8.18182V10.3786H49.4006V8.68991H37.2216V15.3101H49.4006V13.3674H52.6222V15.8182C52.6222 17.1034 51.6557 18 50.2704 18Z" fill="white"/>
<path d="M66.7215 18H63.1939L62.308 15.3101H57.685L56.7186 18H53.191L57.4917 6H62.7268L66.7215 18ZM61.5026 12.8294L60.81 10.6775C60.5844 9.93026 60.2945 9.04857 60.1334 8.30137C59.9401 9.04857 59.6341 9.93026 59.3764 10.6775L58.5871 12.8294H61.5026Z" fill="white"/>
<path d="M76.9636 14.2042H70.8748V18H67.6533V6H76.9636C78.3488 6 79.3153 6.89664 79.3153 8.18182V12.0224C79.3153 13.3076 78.3488 14.2042 76.9636 14.2042ZM76.0937 11.5143V8.68991H70.8748V11.5143H76.0937Z" fill="white"/>
<path d="M92.2205 18H83.2806C81.8954 18 80.9289 17.1034 80.9289 15.8182V8.18182C80.9289 6.89664 81.8954 6 83.2806 6H92.2205V8.68991H84.1505V10.6027H91.9628V13.0685H84.1505V15.3101H92.2205V18Z" fill="white"/>
<path d="M102.815 18H96.2109C94.8257 18 93.8592 17.1034 93.8592 15.8182V6H97.0808V15.3101H102.815V18Z" fill="white"/>
<path d="M112.993 18H106.388C105.003 18 104.037 17.1034 104.037 15.8182V6H107.258V15.3101H112.993V18Z" fill="white"/>
<path d="M127 18H123.472L122.586 15.3101H117.964L116.997 18H113.469L117.77 6H123.005L127 18ZM121.781 12.8294L121.088 10.6775C120.863 9.93026 120.573 9.04857 120.412 8.30137C120.219 9.04857 119.913 9.93026 119.655 10.6775L118.866 12.8294H121.781Z" fill="white"/>
</svg>
